<svg width="1200" height="630" viewBox="0 0 1200 630" xmlns="http://www.w3.org/2000/svg" role="img" aria-label="NovaCMS — Контентная система для проектов, где важны скорость работы, ясный интерфейс и предсказуемая редактура.">
  <defs>
    <linearGradient id="bg" x1="0" y1="0" x2="1" y2="1">
      <stop offset="0%" stop-color="#090C11" />
      <stop offset="100%" stop-color="#111A24" />
    </linearGradient>
  </defs>
  <rect width="1200" height="630" fill="url(#bg)" />
  <g opacity="0.18">
    <path d="M0 80H1200" stroke="white" stroke-width="1" />
    <path d="M0 160H1200" stroke="white" stroke-width="1" />
    <path d="M0 240H1200" stroke="white" stroke-width="1" />
    <path d="M0 320H1200" stroke="white" stroke-width="1" />
    <path d="M0 400H1200" stroke="white" stroke-width="1" />
    <path d="M0 480H1200" stroke="white" stroke-width="1" />
    <path d="M0 560H1200" stroke="white" stroke-width="1" />
    <path d="M100 0V630" stroke="white" stroke-width="1" />
    <path d="M220 0V630" stroke="white" stroke-width="1" />
    <path d="M340 0V630" stroke="white" stroke-width="1" />
    <path d="M460 0V630" stroke="white" stroke-width="1" />
    <path d="M580 0V630" stroke="white" stroke-width="1" />
    <path d="M700 0V630" stroke="white" stroke-width="1" />
    <path d="M820 0V630" stroke="white" stroke-width="1" />
    <path d="M940 0V630" stroke="white" stroke-width="1" />
    <path d="M1060 0V630" stroke="white" stroke-width="1" />
  </g>
  <circle cx="1030" cy="140" r="160" fill="#4F8CFF" fill-opacity="0.12" />
  <rect x="92" y="92" width="190" height="44" rx="22" fill="#4F8CFF" fill-opacity="0.14" stroke="#4F8CFF" stroke-opacity="0.42" />
  <text x="124" y="121" fill="#EAF1FB" font-family="Arial, Helvetica, sans-serif" font-size="20" font-weight="700">SKIF4ER / SYSTEM</text>
  <text x="92" y="246" fill="#EAF1FB" font-family="Arial, Helvetica, sans-serif" font-size="86" font-weight="700">NovaCMS</text>
  <text x="92" y="314" fill="#93A1B5" font-family="Arial, Helvetica, sans-serif" font-size="28">Контентная система для проектов, где важны скорость</text><text x="92" y="352" fill="#93A1B5" font-family="Arial, Helvetica, sans-serif" font-size="28">работы, ясный интерфейс и предсказуемая редактура.</text>
  <text x="92" y="536" fill="#6B7789" font-family="Arial, Helvetica, sans-serif" font-size="24">Независимые системы · Открытый код · Минимум шума</text>
  <rect x="92" y="500" width="1016" height="1" fill="white" fill-opacity="0.12" />
  <rect x="772" y="438" width="336" height="112" rx="28" fill="white" fill-opacity="0.03" stroke="white" stroke-opacity="0.1" />
  <text x="808" y="482" fill="#6B7789" font-family="Arial, Helvetica, sans-serif" font-size="18">signal</text>
  <text x="808" y="518" fill="#7AA8FF" font-family="Arial, Helvetica, sans-serif" font-size="26" font-weight="700">Минимум шума</text>
</svg>